<?xml version="1.0" encoding="utf-8"?>
<!-- Generator: Adobe Illustrator 19.2.1, SVG Export Plug-In . SVG Version: 6.00 Build 0)  -->
<svg version="1.1" id="Layer_1" xmlns="http://www.w3.org/2000/svg" xmlns:xlink="http://www.w3.org/1999/xlink" x="0px" y="0px"
	 viewBox="0 0 1024 50" style="enable-background:new 0 0 1024 50;" xml:space="preserve">
<style type="text/css">
	.st0{fill:#FF0000;}
</style>
<circle class="st0" cx="37.4" cy="24.6" r="19.4"/>
<g>
	<path class="st0" d="M89.7,11.5c6.5,0,12.2,4.3,12.2,14.3c0,9.9-5.7,14.2-12.2,14.2c-6.5,0-12.2-4.3-12.2-14.2
		C77.5,15.8,83.3,11.5,89.7,11.5z M99.3,25.8c0-8.1-4-12.2-9.6-12.2c-5.5,0-9.5,4.1-9.5,12.2c0,8,4,12.2,9.5,12.2
		C95.2,37.9,99.3,33.8,99.3,25.8z"/>
	<path class="st0" d="M107.9,20.5h2.4v3.3h0.1c1.2-2.3,3.4-3.8,6.3-3.8c3.9,0,7.6,2.4,7.6,9.7c0,6.8-3.7,10.1-8,10.1
		c-2.9,0-5.1-1.8-5.8-3.6h-0.1v9.9h-2.5V20.5z M116.1,37.9c3.7,0,5.6-3.1,5.6-8.1c0-4.2-1.4-7.7-5.5-7.7c-3.8,0-5.8,3.1-5.8,6.4v2.7
		C110.3,34.6,112.1,37.9,116.1,37.9z"/>
	<path class="st0" d="M136.8,39.9c-5.8,0-8.4-3.9-8.4-9.8c0-5.7,2.9-10,8.3-10c5.6,0,7.6,4.5,7.6,8.9v1.5H131
		c0.1,4.6,1.9,7.3,5.9,7.3c3.3,0,4.4-2.2,4.8-3.2h2.4C143.3,37.6,140.6,39.9,136.8,39.9z M141.8,28.5c0-3-1-6.4-5-6.4
		c-3.5,0-5.4,2.7-5.7,6.6h10.8V28.5z"/>
	<path class="st0" d="M161.8,27.5c0-1.6-0.1-3-0.8-4c-0.6-0.9-1.7-1.3-3.2-1.3c-3.9,0-5.6,2.8-5.6,6.1v11.1h-2.5V20.5h2.3v3.3h0.1
		c1-2.1,3.1-3.8,6.3-3.8c4.1,0,5.9,2.2,5.9,6.5v12.8h-2.5V27.5z"/>
	<path class="st0" d="M196.9,19.2c-0.3-3.1-1.9-5.7-6.5-5.7c-4,0-6.6,2-6.6,5.3c0,3,1.4,4.3,5,5l4.6,0.8c4.6,0.8,6.9,3.3,6.9,7.1
		c0,4.9-3.5,8.2-10,8.2c-6.3,0-9.9-3.9-10.3-8.2h2.6c0.4,3,2.5,6.2,7.7,6.2c5.3,0,7.3-2.8,7.3-5.9c0-2.6-1.3-4.2-4.8-4.9l-4.4-0.8
		c-5.4-1-7.2-3.5-7.2-7.3c0-4.5,3.9-7.5,9.2-7.5c5.6,0,8.8,3,9,7.7H196.9z"/>
	<path class="st0" d="M209.7,14.9v5.7h4.8v1.9h-4.8v12.2c0,2,0.9,2.9,3,2.9c1.1,0,2.2-0.2,2.2-0.2v2.1c0,0-1.1,0.3-2.8,0.3
		c-3.6,0-4.9-1.9-4.9-4.8V22.5h-3.6v-1.9h0.8c2.4,0,2.9-0.5,2.9-4v-1.7H209.7z"/>
	<path class="st0" d="M221.7,32.6c0,1.5,0.1,3,0.8,3.9c0.6,0.9,1.7,1.3,3.3,1.3c3.6,0,5.4-2.8,5.4-7.1V20.5h2.5v18.9h-2.3v-3.5h-0.1
		c-0.9,2.1-2.9,4-6,4c-4,0-6-2.1-6-6.4V20.5h2.5V32.6z"/>
	<path class="st0" d="M255.5,39.4h-2.4v-3.3h-0.1c-1,1.9-2.9,3.7-6,3.7c-3.8,0-7.9-2.3-7.9-9.8c0-6.4,3.2-10,8.1-10
		c2.8,0,4.8,1.5,5.7,3.6h0.1V11h2.5V39.4z M253.1,28.6c0-3.5-2.1-6.5-5.5-6.5c-4,0-5.8,3.3-5.8,7.8c0,4.7,1.6,7.9,5.6,7.9
		c3.8,0,5.8-3.1,5.8-6.3V28.6z"/>
	<path class="st0" d="M262.4,13h2.7v2.8h-2.7V13z M262.5,20.5h2.5v18.9h-2.5V20.5z"/>
	<path class="st0" d="M270.5,30c0-5.7,3.1-9.9,8.3-9.9c5.7,0,8.2,4.2,8.2,9.9c0,5.8-3,9.9-8.2,9.9C273.1,39.9,270.5,35.7,270.5,30z
		 M273,30c0,4.9,1.8,7.9,5.8,7.9c3.8,0,5.6-3.1,5.6-7.9s-1.7-8-5.7-8C275,22,273,25.1,273,30z"/>
	<path class="st0" d="M302.4,25.1c-0.3-1.8-1.8-3.1-4.4-3.1c-2.6,0-4.2,1.5-4.2,3.4c0,1.8,1,2.7,3,3l3.4,0.5
		c3.6,0.5,5.1,2.3,5.1,5.2c0,3.6-2.9,5.8-7.2,5.8c-3.8,0-6.9-1.5-7.4-5.8h2.4c0.4,2.2,1.8,3.8,5,3.8c2.9,0,4.7-1.5,4.7-3.6
		c0-1.7-0.5-2.8-3.3-3.2l-3.1-0.4c-3.2-0.4-5-1.9-5-5c0-3.3,2.7-5.5,6.7-5.5c3.9,0,6.4,1.8,6.7,5H302.4z"/>
</g>
</svg>
